<?xml version="1.0" encoding="UTF-8"?>
<svg width="24" height="24" viewBox="0 0 24 24" fill="none" xmlns="http://www.w3.org/2000/svg">
    <path d="M6.5 6.5h3a1 1 0 0 1 1 1v9a1 1 0 0 1-1 1h-3a1 1 0 0 1-1-1v-9a1 1 0 0 1 1-1z" stroke="#2563eb" stroke-width="2" stroke-linecap="round" stroke-linejoin="round"/>
    <path d="M14.5 6.5h3a1 1 0 0 1 1 1v9a1 1 0 0 1-1 1h-3a1 1 0 0 1-1-1v-9a1 1 0 0 1 1-1z" stroke="#2563eb" stroke-width="2" stroke-linecap="round" stroke-linejoin="round"/>
    <path d="M3.5 9.5v5M20.5 9.5v5" stroke="#2563eb" stroke-width="2" stroke-linecap="round" stroke-linejoin="round"/>
</svg>